<svg width="109" height="109" viewBox="0 0 109 109" fill="none" xmlns="http://www.w3.org/2000/svg">
<path id="Star 64" d="M45.449 3.07721C51.0709 -0.0764497 57.9291 -0.0764495 63.551 3.07721V3.07721C66.2479 4.59003 69.281 5.40274 72.373 5.44103V5.44103C78.8186 5.52087 84.7579 8.94995 88.0498 14.4921V14.4921C89.629 17.1507 91.8493 19.371 94.5079 20.9502V20.9502C100.05 24.2421 103.479 30.1814 103.559 36.627V36.627C103.597 39.719 104.41 42.7521 105.923 45.449V45.449C109.076 51.0709 109.076 57.9291 105.923 63.551V63.551C104.41 66.2479 103.597 69.281 103.559 72.373V72.373C103.479 78.8186 100.05 84.7579 94.5079 88.0498V88.0498C91.8493 89.629 89.629 91.8493 88.0498 94.5079V94.5079C84.7579 100.05 78.8186 103.479 72.373 103.559V103.559C69.281 103.597 66.2479 104.41 63.551 105.923V105.923C57.9291 109.076 51.0709 109.076 45.449 105.923V105.923C42.7521 104.41 39.719 103.597 36.627 103.559V103.559C30.1814 103.479 24.2421 100.05 20.9502 94.5079V94.5079C19.371 91.8493 17.1507 89.629 14.4921 88.0498V88.0498C8.94995 84.7579 5.52087 78.8186 5.44103 72.373V72.373C5.40274 69.281 4.59003 66.2479 3.07721 63.551V63.551C-0.0764495 57.9291 -0.0764499 51.0709 3.07721 45.449V45.449C4.59003 42.7521 5.40274 39.719 5.44103 36.627V36.627C5.52087 30.1814 8.94995 24.2421 14.4921 20.9502V20.9502C17.1507 19.371 19.371 17.1507 20.9502 14.4921V14.4921C24.2421 8.94995 30.1814 5.52087 36.627 5.44103V5.44103C39.719 5.40274 42.7521 4.59003 45.449 3.07721V3.07721Z" fill="#E1F6E7"/>
</svg>
